<svg width="70" height="70" viewBox="0 0 70 70" fill="none" xmlns="http://www.w3.org/2000/svg">
<g clip-path="url(#clip0_169_968)">
<circle cx="53.5" cy="53.5" r="12.5" fill="#d0eaffff" stroke="#d0eaffff" stroke-width="2"/>
<path d="M60.2814 50.7707C60.3595 50.8488 60.3595 50.9754 60.2814 51.0535L52.3307 59.0043C52.2526 59.0824 52.1259 59.0824 52.0478 59.0043L47.9112 54.8677C47.8331 54.7896 47.8331 54.663 47.9112 54.5849L55.862 46.6341C55.9401 46.556 56.0668 46.556 56.1449 46.6341L60.2814 50.7707Z" fill="#008CFF"/>
<path d="M62.6486 48.403C62.7267 48.4811 62.7267 48.6078 62.6486 48.6859L60.8731 50.4614C60.795 50.5395 60.6683 50.5395 60.5902 50.4614L56.4536 46.3248C56.3755 46.2467 56.3755 46.1201 56.4536 46.042L58.2292 44.2664C58.3073 44.1883 58.4339 44.1883 58.512 44.2664L62.6486 48.403Z" fill="#008CFF"/>
<path d="M47.6969 55.2711L51.6435 59.2177C51.7504 59.3246 51.7046 59.507 51.5598 59.5506L45.9101 61.2537C45.7574 61.2997 45.6149 61.1572 45.6609 61.0044L47.364 55.3548C47.4076 55.21 47.59 55.1642 47.6969 55.2711Z" fill="#008CFF"/>
</g>
<defs>
<clipPath id="clip0_169_968">
<rect width="70" height="70" fill="white"/>
</clipPath>
</defs>
</svg>
